<svg xmlns="http://www.w3.org/2000/svg" width="16" height="16" viewBox="0 0 16 16">
  <rect width="16" height="16" fill="#121520" />
  <g transform="translate(1, 1) scale(0.875)">
    <path d="M0 0 L8 0 A8 8 0 0 1 8 8 L0 8 A8 8 0 0 1 0 0 Z" fill="#9B87F5" />
    <path d="M8 0 L16 0 A8 8 0 0 1 16 8 L8 8 A8 8 0 0 1 8 0 Z" fill="#D0D0D0" />
    <path d="M0 8 L8 8 A8 8 0 0 1 8 16 L0 16 A8 8 0 0 1 0 8 Z" fill="#D0D0D0" />
    <path d="M8 8 L16 8 A8 8 0 0 1 16 16 L8 16 A8 8 0 0 1 8 8 Z" fill="#9B87F5" />
  </g>
</svg>
