<svg xmlns="http://www.w3.org/2000/svg" xmlns:xlink="http://www.w3.org/1999/xlink" width="32" height="32" viewBox="0 0 32 32">
  <rect width="32" height="32" fill="#121520" />
  <defs>
    <linearGradient id="silver-gradient" x1="0%" y1="0%" x2="100%" y2="100%">
      <stop offset="0%" stop-color="#D0D0D0" />
      <stop offset="50%" stop-color="#FFFFFF" />
      <stop offset="100%" stop-color="#A0A0A0" />
    </linearGradient>
    <linearGradient id="purple-gradient" x1="0%" y1="0%" x2="100%" y2="100%">
      <stop offset="0%" stop-color="#A78BFF" />
      <stop offset="50%" stop-color="#9B87F5" />
      <stop offset="100%" stop-color="#8A70FF" />
    </linearGradient>
  </defs>
  <g transform="translate(4, 4) scale(0.75)">
    <!-- Top-left quarter circle (purple) -->
    <path d="M0 0 L16 0 A16 16 0 0 1 0 16 Z" fill="url(#purple-gradient)" />

    <!-- Top-right quarter circle (silver) -->
    <path d="M16 0 L32 0 A16 16 0 0 1 16 16 Z" fill="url(#silver-gradient)" />

    <!-- Bottom-left quarter circle (silver) -->
    <path d="M0 16 L16 16 A16 16 0 0 0 0 32 Z" fill="url(#silver-gradient)" />

    <!-- Bottom-right quarter circle (purple) -->
    <path d="M16 16 L32 16 A16 16 0 0 1 32 32 L16 32 Z" fill="url(#purple-gradient)" />
  </g>
</svg>
