<svg xmlns="http://www.w3.org/2000/svg" xmlns:xlink="http://www.w3.org/1999/xlink" width="16" height="16" viewBox="0 0 16 16">
  <rect width="16" height="16" fill="#121520" />
  <defs>
    <linearGradient id="silver-gradient-small" x1="0%" y1="0%" x2="100%" y2="100%">
      <stop offset="0%" stop-color="#D0D0D0" />
      <stop offset="50%" stop-color="#FFFFFF" />
      <stop offset="100%" stop-color="#A0A0A0" />
    </linearGradient>
    <linearGradient id="purple-gradient-small" x1="0%" y1="0%" x2="100%" y2="100%">
      <stop offset="0%" stop-color="#A78BFF" />
      <stop offset="50%" stop-color="#9B87F5" />
      <stop offset="100%" stop-color="#8A70FF" />
    </linearGradient>
  </defs>
  <g transform="translate(1, 1) scale(0.875)">
    <!-- Top-left quarter circle (purple) -->
    <path d="M0 0 L8 0 A8 8 0 0 1 0 8 Z" fill="url(#purple-gradient-small)" />
    
    <!-- Top-right quarter circle (silver) -->
    <path d="M8 0 L16 0 A8 8 0 0 1 8 8 Z" fill="url(#silver-gradient-small)" />
    
    <!-- Bottom-left quarter circle (silver) -->
    <path d="M0 8 L8 8 A8 8 0 0 0 0 16 Z" fill="url(#silver-gradient-small)" />
    
    <!-- Bottom-right quarter circle (purple) -->
    <path d="M8 8 L16 8 A8 8 0 0 1 16 16 L8 16 Z" fill="url(#purple-gradient-small)" />
  </g>
</svg>
