<svg xmlns="http://www.w3.org/2000/svg" xmlns:xlink="http://www.w3.org/1999/xlink" width="512" height="512" viewBox="0 0 512 512">
  <rect width="512" height="512" fill="#121520" />
  <defs>
    <linearGradient id="silver-gradient" x1="0%" y1="0%" x2="100%" y2="100%">
      <stop offset="0%" stop-color="#D0D0D0" />
      <stop offset="50%" stop-color="#FFFFFF" />
      <stop offset="100%" stop-color="#A0A0A0" />
    </linearGradient>
    <linearGradient id="purple-gradient" x1="0%" y1="0%" x2="100%" y2="100%">
      <stop offset="0%" stop-color="#A78BFF" />
      <stop offset="50%" stop-color="#9B87F5" />
      <stop offset="100%" stop-color="#8A70FF" />
    </linearGradient>
  </defs>
  <g transform="translate(96, 96) scale(0.625)">
    <!-- Top-left quarter circle (purple) -->
    <path d="M0 0 L256 0 A256 256 0 0 1 0 256 Z" fill="url(#purple-gradient)" />
    
    <!-- Top-right quarter circle (silver) -->
    <path d="M256 0 L512 0 A256 256 0 0 1 256 256 Z" fill="url(#silver-gradient)" />
    
    <!-- Bottom-left quarter circle (silver) -->
    <path d="M0 256 L256 256 A256 256 0 0 0 0 512 Z" fill="url(#silver-gradient)" />
    
    <!-- Bottom-right quarter circle (purple) -->
    <path d="M256 256 L512 256 A256 256 0 0 1 512 512 L256 512 Z" fill="url(#purple-gradient)" />
  </g>
</svg>
